<svg width="32" height="32" viewBox="0 0 32 32" fill="#FFCE50" xmlns="http://www.w3.org/2000/svg">
<path d="M10.4003 2.6665H21.6003C25.867 2.6665 29.3337 6.13317 29.3337 10.3998V21.5998C29.3337 23.6508 28.5189 25.6178 27.0686 27.0681C25.6183 28.5184 23.6513 29.3332 21.6003 29.3332H10.4003C6.13366 29.3332 2.66699 25.8665 2.66699 21.5998V10.3998C2.66699 8.34883 3.48175 6.38183 4.93203 4.93154C6.38231 3.48126 8.34932 2.6665 10.4003 2.6665ZM10.1337 5.33317C8.86062 5.33317 7.63972 5.83888 6.73955 6.73906C5.83937 7.63923 5.33366 8.86013 5.33366 10.1332V21.8665C5.33366 24.5198 7.48033 26.6665 10.1337 26.6665H21.867C23.14 26.6665 24.3609 26.1608 25.2611 25.2606C26.1613 24.3604 26.667 23.1395 26.667 21.8665V10.1332C26.667 7.47984 24.5203 5.33317 21.867 5.33317H10.1337ZM23.0003 7.33317C23.4424 7.33317 23.8663 7.50877 24.1788 7.82133C24.4914 8.13389 24.667 8.55781 24.667 8.99984C24.667 9.44186 24.4914 9.86579 24.1788 10.1783C23.8663 10.4909 23.4424 10.6665 23.0003 10.6665C22.5583 10.6665 22.1344 10.4909 21.8218 10.1783C21.5093 9.86579 21.3337 9.44186 21.3337 8.99984C21.3337 8.55781 21.5093 8.13389 21.8218 7.82133C22.1344 7.50877 22.5583 7.33317 23.0003 7.33317ZM16.0003 9.33317C17.7684 9.33317 19.4641 10.0355 20.7144 11.2858C21.9646 12.536 22.667 14.2317 22.667 15.9998C22.667 17.7679 21.9646 19.4636 20.7144 20.7139C19.4641 21.9641 17.7684 22.6665 16.0003 22.6665C14.2322 22.6665 12.5365 21.9641 11.2863 20.7139C10.036 19.4636 9.33366 17.7679 9.33366 15.9998C9.33366 14.2317 10.036 12.536 11.2863 11.2858C12.5365 10.0355 14.2322 9.33317 16.0003 9.33317ZM16.0003 11.9998C14.9395 11.9998 13.922 12.4213 13.1719 13.1714C12.4218 13.9216 12.0003 14.939 12.0003 15.9998C12.0003 17.0607 12.4218 18.0781 13.1719 18.8283C13.922 19.5784 14.9395 19.9998 16.0003 19.9998C17.0612 19.9998 18.0786 19.5784 18.8288 18.8283C19.5789 18.0781 20.0003 17.0607 20.0003 15.9998C20.0003 14.939 19.5789 13.9216 18.8288 13.1714C18.0786 12.4213 17.0612 11.9998 16.0003 11.9998Z" />
</svg>
