    <svg width="208" height="80" viewBox="0 0 208 80" fill="none" xmlns="http://www.w3.org/2000/svg" class="h-16">
      <path fill-rule="evenodd" clip-rule="evenodd" d="M126.224 48.0283C128.728 48.0283 130.349 50.4597 129.317 53.2959C128.028 56.8684 125.45 59.5206 123.277 61.2148H126.15L125.119 64.0508H119.557C119.557 64.0508 119.041 65.3769 117.936 68.4707C122.151 67.2666 126.303 65.8796 128.52 62.877C128.531 62.4782 128.577 62.0696 128.665 61.6562C129.512 57.6417 132.9 55.211 136.031 55.2109C139.088 55.2109 140.636 57.2002 140.378 59.1523C140.009 62.1725 136.436 64.0141 132.127 63.9404C132.79 65.0454 134.263 65.4502 135.368 65.4502C138.051 65.4502 140.544 64.0723 141.61 62.3564C142.703 59.3764 144.162 55.3945 144.162 55.3945H147.22C147.22 55.3945 145.01 61.5097 144.089 63.9775C143.757 64.935 143.978 65.4501 144.678 65.4502C146.088 65.4502 147.467 62.6432 147.752 62.0303L149.027 58.4893H147.48L148.622 55.3945H150.17L151.274 52.375H154.332L153.226 55.3945H154.958L153.816 58.4893H152.122L150.206 63.7197C149.875 64.6404 150.022 65.4502 151.274 65.4502C152.968 65.4502 154.375 62.9791 154.793 62.168C154.825 62.0718 154.859 61.9751 154.895 61.8779C156.221 58.1946 159.647 55.211 162.483 55.2109C163.551 55.2109 164.399 55.6157 165.209 55.6895C165.283 55.5054 165.319 55.3945 165.319 55.3945H168.414C168.414 55.3945 166.167 61.5097 165.283 63.9775C164.952 64.9351 165.135 65.4501 165.872 65.4502C167.446 65.4502 168.983 61.9601 169.003 61.915H168.999C168.999 61.915 169.735 60.4044 170.324 58.5996C169.927 58.4192 169.672 58.309 169.662 58.3047L170.804 55.2109C170.824 55.2197 172.364 55.874 174.413 55.874C175.297 55.874 176.255 55.726 177.249 55.3945H180.307C180.307 55.3945 178.097 61.5097 177.176 63.9775C176.844 64.9349 177.028 65.45 177.765 65.4502C179.121 65.4502 180.446 62.8571 180.801 62.1113C181.882 59.1629 183.263 55.3945 183.263 55.3945H186.319C186.319 55.3945 184.109 61.5097 183.188 63.9775C182.857 64.935 183.078 65.4502 183.778 65.4502C185.203 65.4498 186.596 62.5861 186.861 62.0127C186.877 61.968 186.892 61.9229 186.909 61.8779C188.235 58.1946 191.661 55.211 194.497 55.2109C195.565 55.2109 196.412 55.6157 197.223 55.6895C197.296 55.5053 197.333 55.3945 197.333 55.3945H200.428C200.428 55.3945 198.181 61.5097 197.297 63.9775C196.965 64.935 197.149 65.4501 197.886 65.4502C199.459 65.4502 200.996 61.9613 201.017 61.915H203.779C203.757 61.9758 201.362 68.5449 196.339 68.5449C195.123 68.5449 194.128 67.8814 193.797 66.7764C192.471 67.8813 191.035 68.5449 189.672 68.5449C188.229 68.5449 187.194 67.7916 186.695 66.5752C185.559 67.6793 184.089 68.5449 182.267 68.5449C181.219 68.5448 180.331 68.0738 179.898 67.2412C178.886 68.0077 177.662 68.5449 176.218 68.5449C174.376 68.5448 172.977 67.0344 173.86 64.6406C174.413 63.1673 176.034 58.6729 176.034 58.6729C174.856 59.1516 173.75 59.2621 172.793 59.1885C172.461 60.3672 171.761 61.915 171.761 61.915H171.766C171.744 61.9743 169.349 68.5449 164.325 68.5449C163.11 68.5449 162.115 67.8814 161.783 66.7764C160.457 67.8813 159.021 68.5449 157.658 68.5449C156.118 68.5449 155.044 67.6866 154.589 66.3232C153.319 67.5447 151.685 68.5449 149.727 68.5449C148.386 68.5449 147.297 68.1748 146.836 67.2324C145.826 68.0035 144.607 68.5449 143.168 68.5449C141.886 68.5449 140.844 67.8413 140.581 66.6338C139.016 67.7094 136.95 68.5449 134.3 68.5449C131.773 68.5448 129.923 67.3063 129.059 65.5C125.773 68.4138 121.099 69.9091 117.052 70.9756C117.015 71.0492 116.978 71.1598 116.978 71.2334L116.758 71.7119C116.758 71.8223 116.72 71.8961 116.683 71.9697C115.063 76.4634 111.748 80 108.064 80C105.228 79.9999 104.271 77.9371 105.118 75.543C106.334 72.1912 110.201 70.7174 114.4 69.7598C114.59 69.2323 114.805 68.6399 115.036 68.001C114.315 68.3369 113.515 68.5449 112.631 68.5449C110.752 68.5449 109.389 67.0347 110.236 64.6406C111.149 62.1577 111.591 60.9774 111.599 60.957C112.225 59.2258 112.004 58.3047 110.604 58.3047C109.278 58.3047 107.4 60.0365 106.59 61.915L104.269 68.3604H101.175L105.89 55.3945H108.983L108.542 56.5732C109.72 55.7263 111.009 55.2111 112.114 55.2109C114.987 55.2109 116.019 57.2737 114.656 60.957C114.653 60.967 114.463 61.532 113.551 63.9775C113.219 64.935 113.441 65.4502 114.141 65.4502C115.492 65.4502 116.814 62.8728 117.173 62.1182C118.802 57.6469 120.362 53.382 120.367 53.3691C121.656 49.7963 123.756 48.0284 126.224 48.0283ZM113.442 72.3389C110.753 73.2229 108.727 74.1804 108.212 75.5801C107.917 76.3533 108.322 76.9061 109.206 76.9062C110.716 76.9062 112.227 75.1749 113.442 72.3389ZM161.783 58.3047C160.384 58.305 158.69 59.8891 157.953 61.8779C157.253 63.8667 157.769 65.4499 159.168 65.4502C160.531 65.4502 162.262 63.8668 162.962 61.8779C163.699 59.8889 163.146 58.3047 161.783 58.3047ZM193.797 58.3047C192.397 58.305 190.703 59.8891 189.967 61.8779C189.267 63.8669 189.783 65.4502 191.183 65.4502C192.545 65.4498 194.276 63.8666 194.975 61.8779C195.712 59.8889 195.16 58.3047 193.797 58.3047ZM135.368 58.3418C133.821 58.3419 132.348 59.5939 131.906 61.3984C134.079 61.5089 136.437 61.0306 136.731 59.5205C136.842 58.9312 136.436 58.3418 135.368 58.3418ZM125.671 51.1221C124.897 51.1223 123.977 51.9328 123.425 53.4795C122.762 55.3212 121.804 57.8632 121.03 60.0732C121.62 59.6312 124.861 57.0521 126.076 53.7002C126.592 52.3006 126.592 51.1221 125.671 51.1221Z" fill="#FFCE50"/>
      <path fill-rule="evenodd" clip-rule="evenodd" d="M98.3017 55.2109C101.801 55.2109 103.569 58.1945 102.206 61.8779C100.88 65.561 96.9393 68.5447 93.4403 68.5449C91.3918 68.5449 89.938 67.5214 89.3495 65.9346C87.7079 67.3256 85.3583 68.5449 82.1552 68.5449C78.0666 68.5449 75.7459 65.3028 76.5194 61.6562C77.3667 57.6418 80.755 55.2112 83.8856 55.2109C88.895 55.2109 88.7478 58.8205 87.6796 60.8096L84.0331 61.1777C84.4751 60.1096 85.1752 58.3421 83.2235 58.3418C81.603 58.3418 80.092 59.7411 79.7235 61.6562C79.0974 64.5661 81.566 65.4502 83.2235 65.4502C85.7483 65.4501 88.1053 64.2293 89.2626 62.6553C89.3262 62.4003 89.4043 62.1408 89.4989 61.8779C90.8617 58.1947 94.7657 55.2111 98.3017 55.2109ZM97.1601 58.3047C95.3552 58.3047 93.2925 59.8889 92.5927 61.8779C91.8561 63.8668 92.7401 65.4501 94.5448 65.4502C96.3865 65.4502 98.4126 63.8669 99.1493 61.8779C99.8492 59.8889 98.9649 58.3047 97.1601 58.3047Z" fill="#FFCE50"/>
      <path d="M32.8524 0C37.0245 0 40.1541 1.04342 41.7187 1.69531L41.4579 29.5303L55.4735 1.1084H60.9491L55.9296 36.7012C54.4954 47.7181 59.9067 49.9346 63.7528 49.9346C67.0774 49.9344 71.4452 47.5879 71.4452 47.5879L72.4228 52.6074C72.4228 52.6074 68.5114 55.6063 63.2313 55.6064C56.908 55.6064 48.4332 52.5424 50.454 37.3535L53.1269 18.2529L41.3271 42.1123H35.9169L36.1122 17.0146L30.3104 32.9854C26.4643 43.4808 20.4667 49.4131 11.9921 49.4131C2.53986 49.413 -1.30627 41.721 0.388576 34.9414C1.49679 30.5737 5.79933 25.4893 12.8397 25.4893C18.3156 25.4893 21.7052 29.4654 21.2489 33.833C20.6622 39.048 16.6209 42.3729 12.123 42.373C11.2755 42.373 10.4929 42.3076 9.64541 42.0469L10.2978 37.1582C12.5792 37.7446 14.861 36.7663 15.3173 34.6152C15.6431 33.2463 15.0558 31.0947 11.9921 31.0947C9.05872 31.0948 6.842 33.2463 6.1249 36.1797C5.21226 39.5695 6.4515 44.0674 12.123 44.0674C19.0327 44.0672 22.7483 37.8097 25.4862 30.248L34.5478 5.54102C33.896 5.47584 33.179 5.41116 32.5272 5.41113C24.2483 5.41113 18.6417 8.93076 17.3378 12.6465C16.7511 14.4066 17.0119 15.58 19.4237 17.4053C19.4372 17.3749 22.2469 11.0821 30.5058 11.082L28.4198 16.6885C26.4642 16.6885 24.8345 17.4056 22.0966 25.0977L16.9462 24.3154L17.0116 24.0547C18.511 19.8174 8.40672 18.5785 11.4706 11.0166C13.8175 5.2801 21.4447 0.000108503 32.8524 0Z" fill="#FFCE50"/>
      <path d="M147.403 50.7168C148.398 50.7168 148.95 51.5644 148.582 52.5957C148.177 53.5901 147.072 54.4374 146.041 54.4375C145.01 54.4375 144.494 53.5902 144.862 52.5957C145.23 51.5645 146.372 50.717 147.403 50.7168Z" fill="#FFCE50"/>
      <path d="M186.504 50.7168C187.498 50.7169 188.051 51.5644 187.683 52.5957C187.277 53.5902 186.172 54.4375 185.141 54.4375C184.109 54.4374 183.594 53.5901 183.962 52.5957C184.33 51.5644 185.472 50.7168 186.504 50.7168Z" fill="#FFCE50"/>
      <path fill-rule="evenodd" clip-rule="evenodd" d="M105.88 21.9688C107.966 20.4694 110.182 19.5567 112.203 19.5566C117.288 19.5566 119.113 23.2077 116.701 29.7266C116.694 29.7487 116.357 30.7533 114.746 35.0713C114.159 36.7662 114.55 37.6797 115.789 37.6797C117.493 37.6793 119.17 35.366 120.225 33.5527C120.214 32.7119 120.299 31.8451 120.485 30.9648C121.985 23.8592 127.982 19.5566 133.523 19.5566C138.934 19.5568 141.672 23.0773 141.216 26.5322C140.564 31.8775 134.24 35.1371 126.613 35.0068C127.787 36.9622 130.394 37.6797 132.35 37.6797C137.074 37.6797 141.467 35.264 143.369 32.248L152.607 6.84473H158.083L147.783 35.0713C147.196 36.7662 147.522 37.6796 148.826 37.6797C150.774 37.6797 152.69 34.6565 153.678 32.8125C155.626 27.4999 158.408 19.9106 158.418 19.8828H163.828C163.806 19.943 159.912 30.7157 158.287 35.0713C157.7 36.766 158.092 37.6795 159.33 37.6797C161.787 37.6797 164.194 32.8709 164.751 31.6836L167.028 25.3584H164.29L166.311 19.8828H169.049L171.005 14.5371H176.416L174.46 19.8828H177.523L175.503 25.3584H172.504L169.114 34.6152C168.527 36.245 168.788 37.6797 171.005 37.6797C173.993 37.6796 176.482 33.3321 177.228 31.8838C177.287 31.7089 177.349 31.5323 177.414 31.3555C179.761 24.8368 185.823 19.5566 190.843 19.5566C192.733 19.5567 194.233 20.2739 195.667 20.4043C195.795 20.0833 195.86 19.8886 195.862 19.8828H201.338C201.317 19.9398 197.357 30.715 195.797 35.0713C195.21 36.7661 195.536 37.6796 196.84 37.6797C199.643 37.6797 202.381 31.4209 202.381 31.4209H207.27C207.27 31.4209 203.033 43.1549 194.102 43.1553C191.951 43.1553 190.191 41.9818 189.604 40.0264C187.258 41.982 184.715 43.1553 182.303 43.1553C179.577 43.1552 177.677 41.637 176.871 39.2246C174.624 41.3863 171.731 43.1553 168.267 43.1553C165.894 43.1552 163.966 42.5011 163.15 40.835C161.364 42.1994 159.204 43.1553 156.657 43.1553C154.838 43.1551 153.294 42.3542 152.513 40.9355C150.752 42.2461 148.637 43.1553 146.153 43.1553C143.886 43.1552 142.044 41.9114 141.577 39.7764C138.808 41.6799 135.15 43.1553 130.459 43.1553C126.496 43.1552 123.472 41.4342 121.771 38.8174C119.666 41.1604 116.796 43.1552 113.116 43.1553C109.791 43.1553 107.379 40.4824 108.879 36.2451C110.499 31.8371 111.282 29.7498 111.291 29.7266C112.399 26.6627 112.007 25.0322 109.53 25.0322C107.118 25.0324 103.728 28.2919 102.359 31.6816L98.3183 42.8291H92.8417L93.6767 40.5342C91.0752 42.0568 87.7981 43.1553 83.7528 43.1553C79.4801 43.1551 76.2987 41.1546 74.6913 38.1875C72.5473 40.7916 69.5013 43.1552 65.495 43.1553C62.1704 43.1553 59.7584 40.4824 61.2577 36.2451C62.8841 31.8214 67.2366 19.9324 67.2548 19.8828H72.6659C72.6602 19.8986 68.7536 30.7065 67.1249 35.0713C66.5382 36.7662 66.9293 37.6797 68.1679 37.6797C70.811 37.6791 73.3953 32.1141 73.6815 31.4795C73.7103 31.3085 73.7427 31.1369 73.7792 30.9648C75.2785 23.8592 81.2762 19.5566 86.8173 19.5566C95.6828 19.5567 95.4216 25.9456 93.5312 29.4658L87.078 30.1172C87.8603 28.2267 89.0984 25.0977 85.6435 25.0977C82.7752 25.0978 80.1029 27.5751 79.4511 30.9648C78.3429 36.1146 82.7099 37.6796 85.6435 37.6797C90.431 37.6797 94.8787 35.1992 96.7382 32.127L105.945 6.84473H111.355L105.88 21.9688ZM189.604 25.0322C187.127 25.0322 184.128 27.8354 182.824 31.3555C181.586 34.8756 182.498 37.6796 184.975 37.6797C187.387 37.6797 190.452 34.8757 191.69 31.3555C192.994 27.8357 192.016 25.0325 189.604 25.0322ZM132.35 25.0977C129.612 25.0977 127.004 27.3146 126.222 30.5088C130.068 30.7044 134.24 29.8563 134.762 27.1836C134.957 26.1406 134.24 25.0977 132.35 25.0977Z" fill="#FFCE50"/>
      <path d="M72.9911 11.6035C74.7512 11.6035 75.7289 13.1034 75.077 14.9287C74.3598 16.6886 72.4041 18.1875 70.579 18.1875C68.7542 18.1872 67.8416 16.6885 68.4931 14.9287C69.1449 13.1035 71.1659 11.6037 72.9911 11.6035Z" fill="#FFCE50"/>
      <path d="M164.154 11.6035C165.914 11.6035 166.892 13.1034 166.24 14.9287C165.523 16.6886 163.567 18.1875 161.742 18.1875C159.917 18.1874 159.005 16.6886 159.656 14.9287C160.308 13.1035 162.329 11.6036 164.154 11.6035Z" fill="#FFCE50"/>
    </svg>
